<svg width="24" height="24" viewBox="0 0 24 24" fill="none" xmlns="http://www.w3.org/2000/svg">
<path d="M19.8281 0C19.3164 0 18.8046 0.195437 18.4141 0.585938L16 3L21 8L23.4141 5.58594C24.1951 4.80494 24.1951 3.53881 23.4141 2.75781L21.2422 0.585938C20.8517 0.195437 20.3399 0 19.8281 0ZM14 5L2.25977 16.7402C2.25977 16.7402 3.17753 16.658 3.51953 17C3.86153 17.342 3.58 19.58 4 20C4.42 20.42 6.64389 20.1244 6.96289 20.4434C7.28189 20.7624 7.25977 21.7402 7.25977 21.7402L19 10L14 5ZM1 20L0.0566406 22.6719C0.0195554 22.7773 0.000409835 22.8882 0 23C0 23.2652 0.105357 23.5196 0.292893 23.7071C0.48043 23.8946 0.734784 24 1 24C1.11177 23.9996 1.22268 23.9804 1.32812 23.9434C1.33139 23.9421 1.33464 23.9408 1.33789 23.9395L1.36328 23.9316C1.36524 23.9303 1.36719 23.929 1.36914 23.9277L4 23L2.5 21.5L1 20Z" fill="white"/>
</svg>
